<?xml version="1.0" standalone="no"?><!DOCTYPE svg PUBLIC "-//W3C//DTD SVG 1.1//EN" "http://www.w3.org/Graphics/SVG/1.1/DTD/svg11.dtd"><svg t="1571992044858" class="icon" viewBox="0 0 1024 1024" version="1.1" xmlns="http://www.w3.org/2000/svg" p-id="5614" xmlns:xlink="http://www.w3.org/1999/xlink" width="200" height="200"><defs><style type="text/css"></style></defs><path d="M485.078349 858.180394c-4.646833-2.13564-8.897647-3.51608-12.527314-5.857405-15.667841-10.104125-31.531134-19.965727-46.641273-30.860868-77.465303-55.856146-151.913898-115.629507-226.215138-175.562505C135.241682 593.909521 71.302441 541.287023 7.138072 488.940818c-0.900509-0.734734-1.771343-1.50426-3.299139-2.803859C158.843216 340.505138 314.506509 195.931415 481.127364 61.268412c0.738827 85.829807 1.463328 170.034605 2.188852 254.437923 12.631692 2.14178 24.959461 3.955078 37.174668 6.345522 103.59031 20.274766 202.082508 54.182017 291.938002 110.594841 52.655244 33.05893 99.204419 73.154114 136.311549 123.398448 33.628912 45.537126 58.429761 95.296413 68.826552 151.408385 6.158257 33.236985 7.607258 66.751287 4.719488 100.506065-4.192485 49.015344-17.312294 95.451956-38.917358 139.567709-0.585331 1.195222-1.140986 2.405793-1.77646 3.572362-0.12382 0.228197-0.556679 0.286526-1.170662 0.576121 0.650823-27.748994-2.650363-54.959729-8.318456-81.893148-11.054777-52.53961-30.379914-101.96223-57.024761-148.486846-9.010211-15.733333-18.303878-31.442106-29.05678-45.986357-6.695492-9.057283-15.72924-16.761756-24.821315-23.603581-33.923624-25.53149-72.509431-41.055045-113.578802-50.745754-50.059116-11.811-100.772124-14.015202-151.926178-10.368138-35.94977 2.562359-71.400167 8.241708-106.683764 15.346523-4.90266 0.98749-5.832845 3.01159-5.785773 7.590885 0.820692 79.653131 1.466398 159.309332 2.13564 238.963487C485.375108 853.951069 485.221612 855.41235 485.078349 858.180394z" p-id="5615" fill="#bfbfbf"></path></svg>